<?xml version="1.0" encoding="iso-8859-1"?>
<!-- Generator: Adobe Illustrator 19.0.0, SVG Export Plug-In . SVG Version: 6.00 Build 0)  -->
<svg version="1.1" id="Layer_1" xmlns="http://www.w3.org/2000/svg" xmlns:xlink="http://www.w3.org/1999/xlink" x="0px" y="0px"
	 viewBox="0 0 512 512" style="enable-background:new 0 0 512 512;" xml:space="preserve">
<g>
	<g>
		<g>
			<path d="M490.667,286.17H448v-21.333c0-11.776-9.536-21.333-21.333-21.333H85.333C73.536,243.503,64,253.06,64,264.836v21.333
				H21.333C9.536,286.17,0,295.727,0,307.503v85.333c0,11.776,9.536,21.333,21.333,21.333H64v21.333
				c0,11.776,9.536,21.333,21.333,21.333h341.333c11.797,0,21.333-9.557,21.333-21.333V414.17h42.667
				c11.797,0,21.333-9.557,21.333-21.333v-85.333C512,295.727,502.464,286.17,490.667,286.17z"/>
			<path d="M176.917,212.262c4.16,4.16,9.621,6.251,15.083,6.251s10.923-2.091,15.083-6.251c8.341-8.32,8.341-21.824,0-30.165
				c-8.32-8.32-8.32-21.845,0-30.187c24.939-24.96,24.939-65.536,0-90.496c-8.341-8.341-21.824-8.32-30.165-0.021
				c-8.341,8.341-8.341,21.845,0,30.187c8.32,8.32,8.32,21.845,0,30.165C151.979,146.705,151.979,187.302,176.917,212.262z"/>
			<path d="M296.083,212.262c4.16,4.16,9.621,6.251,15.083,6.251c5.461,0,10.923-2.091,15.083-6.251
				c8.341-8.32,8.341-21.824,0-30.165c-8.32-8.32-8.32-21.845,0-30.165c12.096-12.117,18.773-28.181,18.773-45.269
				s-6.677-33.152-18.773-45.269c-8.341-8.299-21.824-8.32-30.165,0.021c-8.341,8.32-8.341,21.845,0,30.165
				c4.032,4.032,6.272,9.387,6.272,15.083s-2.24,11.051-6.272,15.083C271.145,146.705,271.145,187.302,296.083,212.262z"/>
		</g>
	</g>
</g>
<g>
</g>
<g>
</g>
<g>
</g>
<g>
</g>
<g>
</g>
<g>
</g>
<g>
</g>
<g>
</g>
<g>
</g>
<g>
</g>
<g>
</g>
<g>
</g>
<g>
</g>
<g>
</g>
<g>
</g>
</svg>
